<mxfile host="Electron" modified="2024-06-28T02:32:30.436Z" agent="Mozilla/5.0 (X11; Linux x86_64) AppleWebKit/537.36 (KHTML, like Gecko) draw.io/21.5.0 Chrome/112.0.5615.204 Electron/24.5.1 Safari/537.36" etag="VI7t2d0YQeZv6Ewv5CuU" version="21.5.0" type="device">
  <diagram name="Page-1" id="KBLfeejd4FQ65YUY37hH">
    <mxGraphModel dx="1434" dy="1889" grid="1" gridSize="10" guides="1" tooltips="1" connect="1" arrows="1" fold="1" page="1" pageScale="1" pageWidth="850" pageHeight="1100" background="none" math="0" shadow="0">
      <root>
        <mxCell id="0" />
        <mxCell id="1" parent="0" />
        <mxCell id="5NyFikb4XWF_k51FXX9m-24" style="edgeStyle=orthogonalEdgeStyle;rounded=0;orthogonalLoop=1;jettySize=auto;html=1;exitX=0.25;exitY=1;exitDx=0;exitDy=0;entryX=0.5;entryY=0;entryDx=0;entryDy=0;" edge="1" parent="1" source="5NyFikb4XWF_k51FXX9m-53" target="5NyFikb4XWF_k51FXX9m-19">
          <mxGeometry relative="1" as="geometry">
            <mxPoint x="310.0000000000002" as="sourcePoint" />
          </mxGeometry>
        </mxCell>
        <mxCell id="5NyFikb4XWF_k51FXX9m-60" value="L1 / L2 / L3" style="edgeLabel;html=1;align=center;verticalAlign=middle;resizable=0;points=[];" vertex="1" connectable="0" parent="5NyFikb4XWF_k51FXX9m-24">
          <mxGeometry x="-0.1429" y="-1" relative="1" as="geometry">
            <mxPoint x="10" y="-29" as="offset" />
          </mxGeometry>
        </mxCell>
        <mxCell id="5NyFikb4XWF_k51FXX9m-28" style="edgeStyle=orthogonalEdgeStyle;rounded=0;orthogonalLoop=1;jettySize=auto;html=1;exitX=0.5;exitY=0;exitDx=0;exitDy=0;entryX=0.75;entryY=1;entryDx=0;entryDy=0;" edge="1" parent="1" source="5NyFikb4XWF_k51FXX9m-27" target="5NyFikb4XWF_k51FXX9m-53">
          <mxGeometry relative="1" as="geometry">
            <mxPoint x="770" as="targetPoint" />
          </mxGeometry>
        </mxCell>
        <mxCell id="5NyFikb4XWF_k51FXX9m-61" value="Order [dir, price, qty, exp]" style="edgeLabel;html=1;align=center;verticalAlign=middle;resizable=0;points=[];" vertex="1" connectable="0" parent="5NyFikb4XWF_k51FXX9m-28">
          <mxGeometry x="-0.099" relative="1" as="geometry">
            <mxPoint x="-44" y="-30" as="offset" />
          </mxGeometry>
        </mxCell>
        <mxCell id="5NyFikb4XWF_k51FXX9m-32" value="" style="endArrow=none;dashed=1;html=1;dashPattern=1 3;strokeWidth=2;rounded=0;" edge="1" parent="1">
          <mxGeometry width="50" height="50" relative="1" as="geometry">
            <mxPoint x="80" y="460" as="sourcePoint" />
            <mxPoint x="1000" y="460" as="targetPoint" />
          </mxGeometry>
        </mxCell>
        <mxCell id="5NyFikb4XWF_k51FXX9m-52" value="SETS" style="swimlane;horizontal=0;whiteSpace=wrap;html=1;" vertex="1" parent="1">
          <mxGeometry x="10" y="40" width="1030" height="1060" as="geometry">
            <mxRectangle x="10" y="40" width="40" height="150" as="alternateBounds" />
          </mxGeometry>
        </mxCell>
        <mxCell id="5NyFikb4XWF_k51FXX9m-19" value="Market Data Collector" style="rounded=0;whiteSpace=wrap;html=1;" vertex="1" parent="5NyFikb4XWF_k51FXX9m-52">
          <mxGeometry x="70" y="80" width="280" height="80" as="geometry" />
        </mxCell>
        <mxCell id="5NyFikb4XWF_k51FXX9m-27" value="Order Executor" style="rounded=0;whiteSpace=wrap;html=1;" vertex="1" parent="5NyFikb4XWF_k51FXX9m-52">
          <mxGeometry x="710" y="80" width="280" height="80" as="geometry" />
        </mxCell>
        <mxCell id="5NyFikb4XWF_k51FXX9m-47" value="Order Manager" style="rounded=0;whiteSpace=wrap;html=1;" vertex="1" parent="5NyFikb4XWF_k51FXX9m-52">
          <mxGeometry x="710" y="280" width="280" height="80" as="geometry" />
        </mxCell>
        <mxCell id="5NyFikb4XWF_k51FXX9m-20" value="Market Data Enhancer" style="rounded=0;whiteSpace=wrap;html=1;" vertex="1" parent="5NyFikb4XWF_k51FXX9m-52">
          <mxGeometry x="70" y="280" width="280" height="80" as="geometry" />
        </mxCell>
        <mxCell id="5NyFikb4XWF_k51FXX9m-25" value="Data Analytics Platform" style="rounded=0;whiteSpace=wrap;html=1;" vertex="1" parent="5NyFikb4XWF_k51FXX9m-52">
          <mxGeometry x="70" y="480" width="280" height="80" as="geometry" />
        </mxCell>
        <mxCell id="5NyFikb4XWF_k51FXX9m-36" value="Position Management Platform" style="rounded=0;whiteSpace=wrap;html=1;" vertex="1" parent="5NyFikb4XWF_k51FXX9m-52">
          <mxGeometry x="710" y="480" width="280" height="80" as="geometry" />
        </mxCell>
        <mxCell id="5NyFikb4XWF_k51FXX9m-39" value="Strategical Supervisor" style="rounded=0;whiteSpace=wrap;html=1;" vertex="1" parent="5NyFikb4XWF_k51FXX9m-52">
          <mxGeometry x="710" y="680" width="280" height="80" as="geometry" />
        </mxCell>
        <mxCell id="5NyFikb4XWF_k51FXX9m-33" value="Analytical Supervisor" style="rounded=0;whiteSpace=wrap;html=1;" vertex="1" parent="5NyFikb4XWF_k51FXX9m-52">
          <mxGeometry x="70" y="680" width="280" height="80" as="geometry" />
        </mxCell>
        <mxCell id="5NyFikb4XWF_k51FXX9m-43" value="Vault of Wisdom" style="shape=cylinder3;whiteSpace=wrap;html=1;boundedLbl=1;backgroundOutline=1;size=15;" vertex="1" parent="5NyFikb4XWF_k51FXX9m-52">
          <mxGeometry x="150" y="880" width="120" height="140" as="geometry" />
        </mxCell>
        <mxCell id="5NyFikb4XWF_k51FXX9m-44" value="Vault of Wisdom" style="shape=cylinder3;whiteSpace=wrap;html=1;boundedLbl=1;backgroundOutline=1;size=15;" vertex="1" parent="5NyFikb4XWF_k51FXX9m-52">
          <mxGeometry x="790" y="880" width="120" height="140" as="geometry" />
        </mxCell>
        <mxCell id="5NyFikb4XWF_k51FXX9m-49" style="edgeStyle=orthogonalEdgeStyle;rounded=0;orthogonalLoop=1;jettySize=auto;html=1;exitX=0.5;exitY=0;exitDx=0;exitDy=0;entryX=0.5;entryY=1;entryDx=0;entryDy=0;" edge="1" parent="5NyFikb4XWF_k51FXX9m-52" source="5NyFikb4XWF_k51FXX9m-47" target="5NyFikb4XWF_k51FXX9m-27">
          <mxGeometry relative="1" as="geometry" />
        </mxCell>
        <mxCell id="5NyFikb4XWF_k51FXX9m-21" style="edgeStyle=orthogonalEdgeStyle;rounded=0;orthogonalLoop=1;jettySize=auto;html=1;exitX=0.5;exitY=1;exitDx=0;exitDy=0;entryX=0.5;entryY=0;entryDx=0;entryDy=0;" edge="1" parent="5NyFikb4XWF_k51FXX9m-52" source="5NyFikb4XWF_k51FXX9m-19" target="5NyFikb4XWF_k51FXX9m-20">
          <mxGeometry relative="1" as="geometry" />
        </mxCell>
        <mxCell id="5NyFikb4XWF_k51FXX9m-26" style="edgeStyle=orthogonalEdgeStyle;rounded=0;orthogonalLoop=1;jettySize=auto;html=1;exitX=0.5;exitY=1;exitDx=0;exitDy=0;entryX=0.5;entryY=0;entryDx=0;entryDy=0;" edge="1" parent="5NyFikb4XWF_k51FXX9m-52" source="5NyFikb4XWF_k51FXX9m-20" target="5NyFikb4XWF_k51FXX9m-25">
          <mxGeometry relative="1" as="geometry" />
        </mxCell>
        <mxCell id="5NyFikb4XWF_k51FXX9m-63" value="L1 / L2 / L3&lt;br&gt;RSI, MACD, CVD, etc" style="edgeLabel;html=1;align=center;verticalAlign=middle;resizable=0;points=[];" vertex="1" connectable="0" parent="5NyFikb4XWF_k51FXX9m-26">
          <mxGeometry x="0.2278" y="2" relative="1" as="geometry">
            <mxPoint x="-2" y="-13" as="offset" />
          </mxGeometry>
        </mxCell>
        <mxCell id="5NyFikb4XWF_k51FXX9m-37" style="edgeStyle=orthogonalEdgeStyle;rounded=0;orthogonalLoop=1;jettySize=auto;html=1;exitX=1;exitY=0.5;exitDx=0;exitDy=0;entryX=0;entryY=0.5;entryDx=0;entryDy=0;" edge="1" parent="5NyFikb4XWF_k51FXX9m-52" source="5NyFikb4XWF_k51FXX9m-25" target="5NyFikb4XWF_k51FXX9m-36">
          <mxGeometry relative="1" as="geometry" />
        </mxCell>
        <mxCell id="5NyFikb4XWF_k51FXX9m-66" value="Predictions" style="edgeLabel;html=1;align=center;verticalAlign=middle;resizable=0;points=[];" vertex="1" connectable="0" parent="5NyFikb4XWF_k51FXX9m-37">
          <mxGeometry x="-0.0778" y="1" relative="1" as="geometry">
            <mxPoint x="14" y="1" as="offset" />
          </mxGeometry>
        </mxCell>
        <mxCell id="5NyFikb4XWF_k51FXX9m-48" style="edgeStyle=orthogonalEdgeStyle;rounded=0;orthogonalLoop=1;jettySize=auto;html=1;exitX=0.5;exitY=0;exitDx=0;exitDy=0;entryX=0.5;entryY=1;entryDx=0;entryDy=0;" edge="1" parent="5NyFikb4XWF_k51FXX9m-52" source="5NyFikb4XWF_k51FXX9m-36" target="5NyFikb4XWF_k51FXX9m-47">
          <mxGeometry relative="1" as="geometry" />
        </mxCell>
        <mxCell id="5NyFikb4XWF_k51FXX9m-72" value="EN, SL, TP" style="edgeLabel;html=1;align=center;verticalAlign=middle;resizable=0;points=[];" vertex="1" connectable="0" parent="5NyFikb4XWF_k51FXX9m-48">
          <mxGeometry x="0.2167" y="3" relative="1" as="geometry">
            <mxPoint x="3" y="13" as="offset" />
          </mxGeometry>
        </mxCell>
        <mxCell id="5NyFikb4XWF_k51FXX9m-40" style="edgeStyle=orthogonalEdgeStyle;rounded=0;orthogonalLoop=1;jettySize=auto;html=1;exitX=0.25;exitY=1;exitDx=0;exitDy=0;entryX=0.25;entryY=0;entryDx=0;entryDy=0;" edge="1" parent="5NyFikb4XWF_k51FXX9m-52" source="5NyFikb4XWF_k51FXX9m-36" target="5NyFikb4XWF_k51FXX9m-39">
          <mxGeometry relative="1" as="geometry" />
        </mxCell>
        <mxCell id="5NyFikb4XWF_k51FXX9m-70" value="Positions" style="edgeLabel;html=1;align=center;verticalAlign=middle;resizable=0;points=[];" vertex="1" connectable="0" parent="5NyFikb4XWF_k51FXX9m-40">
          <mxGeometry x="0.2" relative="1" as="geometry">
            <mxPoint y="-12" as="offset" />
          </mxGeometry>
        </mxCell>
        <mxCell id="5NyFikb4XWF_k51FXX9m-41" style="edgeStyle=orthogonalEdgeStyle;rounded=0;orthogonalLoop=1;jettySize=auto;html=1;exitX=0.75;exitY=0;exitDx=0;exitDy=0;entryX=0.75;entryY=1;entryDx=0;entryDy=0;" edge="1" parent="5NyFikb4XWF_k51FXX9m-52" source="5NyFikb4XWF_k51FXX9m-39" target="5NyFikb4XWF_k51FXX9m-36">
          <mxGeometry relative="1" as="geometry" />
        </mxCell>
        <mxCell id="5NyFikb4XWF_k51FXX9m-71" value="Corrections" style="edgeLabel;html=1;align=center;verticalAlign=middle;resizable=0;points=[];" vertex="1" connectable="0" parent="5NyFikb4XWF_k51FXX9m-41">
          <mxGeometry x="-0.1833" y="1" relative="1" as="geometry">
            <mxPoint y="-11" as="offset" />
          </mxGeometry>
        </mxCell>
        <mxCell id="5NyFikb4XWF_k51FXX9m-34" style="edgeStyle=orthogonalEdgeStyle;rounded=0;orthogonalLoop=1;jettySize=auto;html=1;exitX=0.25;exitY=1;exitDx=0;exitDy=0;entryX=0.25;entryY=0;entryDx=0;entryDy=0;" edge="1" parent="5NyFikb4XWF_k51FXX9m-52" source="5NyFikb4XWF_k51FXX9m-25" target="5NyFikb4XWF_k51FXX9m-33">
          <mxGeometry relative="1" as="geometry" />
        </mxCell>
        <mxCell id="5NyFikb4XWF_k51FXX9m-64" value="Predictions" style="edgeLabel;html=1;align=center;verticalAlign=middle;resizable=0;points=[];" vertex="1" connectable="0" parent="5NyFikb4XWF_k51FXX9m-34">
          <mxGeometry x="-0.1833" y="2" relative="1" as="geometry">
            <mxPoint x="-2" y="11" as="offset" />
          </mxGeometry>
        </mxCell>
        <mxCell id="5NyFikb4XWF_k51FXX9m-35" style="edgeStyle=orthogonalEdgeStyle;rounded=0;orthogonalLoop=1;jettySize=auto;html=1;exitX=0.75;exitY=0;exitDx=0;exitDy=0;entryX=0.75;entryY=1;entryDx=0;entryDy=0;" edge="1" parent="5NyFikb4XWF_k51FXX9m-52" source="5NyFikb4XWF_k51FXX9m-33" target="5NyFikb4XWF_k51FXX9m-25">
          <mxGeometry relative="1" as="geometry" />
        </mxCell>
        <mxCell id="5NyFikb4XWF_k51FXX9m-65" value="Corrections" style="edgeLabel;html=1;align=center;verticalAlign=middle;resizable=0;points=[];" vertex="1" connectable="0" parent="5NyFikb4XWF_k51FXX9m-35">
          <mxGeometry x="-0.1833" y="-1" relative="1" as="geometry">
            <mxPoint y="-11" as="offset" />
          </mxGeometry>
        </mxCell>
        <mxCell id="5NyFikb4XWF_k51FXX9m-42" style="edgeStyle=orthogonalEdgeStyle;rounded=0;orthogonalLoop=1;jettySize=auto;html=1;exitX=0;exitY=0.5;exitDx=0;exitDy=0;entryX=1;entryY=0.5;entryDx=0;entryDy=0;" edge="1" parent="5NyFikb4XWF_k51FXX9m-52" source="5NyFikb4XWF_k51FXX9m-39" target="5NyFikb4XWF_k51FXX9m-33">
          <mxGeometry relative="1" as="geometry" />
        </mxCell>
        <mxCell id="5NyFikb4XWF_k51FXX9m-67" value="Positions" style="edgeLabel;html=1;align=center;verticalAlign=middle;resizable=0;points=[];" vertex="1" connectable="0" parent="5NyFikb4XWF_k51FXX9m-42">
          <mxGeometry x="0.0778" y="-3" relative="1" as="geometry">
            <mxPoint x="14" y="3" as="offset" />
          </mxGeometry>
        </mxCell>
        <mxCell id="5NyFikb4XWF_k51FXX9m-45" style="edgeStyle=orthogonalEdgeStyle;rounded=0;orthogonalLoop=1;jettySize=auto;html=1;exitX=0.5;exitY=1;exitDx=0;exitDy=0;entryX=0.5;entryY=0;entryDx=0;entryDy=0;entryPerimeter=0;" edge="1" parent="5NyFikb4XWF_k51FXX9m-52" source="5NyFikb4XWF_k51FXX9m-33" target="5NyFikb4XWF_k51FXX9m-43">
          <mxGeometry relative="1" as="geometry" />
        </mxCell>
        <mxCell id="5NyFikb4XWF_k51FXX9m-68" value="Wisdom" style="edgeLabel;html=1;align=center;verticalAlign=middle;resizable=0;points=[];" vertex="1" connectable="0" parent="5NyFikb4XWF_k51FXX9m-45">
          <mxGeometry x="-0.2167" y="1" relative="1" as="geometry">
            <mxPoint x="-1" y="13" as="offset" />
          </mxGeometry>
        </mxCell>
        <mxCell id="5NyFikb4XWF_k51FXX9m-46" style="edgeStyle=orthogonalEdgeStyle;rounded=0;orthogonalLoop=1;jettySize=auto;html=1;exitX=0.5;exitY=1;exitDx=0;exitDy=0;entryX=0.5;entryY=0;entryDx=0;entryDy=0;entryPerimeter=0;" edge="1" parent="5NyFikb4XWF_k51FXX9m-52" source="5NyFikb4XWF_k51FXX9m-39" target="5NyFikb4XWF_k51FXX9m-44">
          <mxGeometry relative="1" as="geometry" />
        </mxCell>
        <mxCell id="5NyFikb4XWF_k51FXX9m-69" value="Wisdom" style="edgeLabel;html=1;align=center;verticalAlign=middle;resizable=0;points=[];" vertex="1" connectable="0" parent="5NyFikb4XWF_k51FXX9m-46">
          <mxGeometry x="-0.1833" y="-1" relative="1" as="geometry">
            <mxPoint x="1" y="11" as="offset" />
          </mxGeometry>
        </mxCell>
        <mxCell id="5NyFikb4XWF_k51FXX9m-62" value="L1 / L2 / L3" style="edgeLabel;html=1;align=center;verticalAlign=middle;resizable=0;points=[];" vertex="1" connectable="0" parent="5NyFikb4XWF_k51FXX9m-52">
          <mxGeometry x="210" y="220" as="geometry" />
        </mxCell>
        <mxCell id="5NyFikb4XWF_k51FXX9m-74" value="EN, SL, TP" style="edgeLabel;html=1;align=center;verticalAlign=middle;resizable=0;points=[];" vertex="1" connectable="0" parent="5NyFikb4XWF_k51FXX9m-52">
          <mxGeometry x="850" y="220" as="geometry" />
        </mxCell>
        <mxCell id="5NyFikb4XWF_k51FXX9m-53" value="Exchange" style="shape=parallelogram;perimeter=parallelogramPerimeter;whiteSpace=wrap;html=1;fixedSize=1;fontStyle=1" vertex="1" parent="1">
          <mxGeometry x="10" y="-120" width="1030" height="60" as="geometry" />
        </mxCell>
      </root>
    </mxGraphModel>
  </diagram>
</mxfile>
